<svg width="199" height="92" viewBox="0 0 199 92" fill="none" xmlns="http://www.w3.org/2000/svg">
  <path fill="white" d="M42.624 89.408C41.1733 88.9813 40.448 87.36 40.448 84.544C40.448 78.4853 43.8613 67.2213 50.688 50.752L53.12 45.12H51.712C49.0667 45.12 41.8987 45.6747 30.208 46.784C30.0373 46.8693 29.824 47.168 29.568 47.68C29.312 48.192 28.928 49.0027 28.416 50.112C24.832 57.9627 22.5707 63.1253 21.632 65.6C20.7787 67.9893 20.352 69.824 20.352 71.104C20.0107 74.2613 19.456 75.84 18.688 75.84C18.2613 75.84 18.048 75.4987 18.048 74.816C18.048 74.048 18.2613 72.64 18.688 70.592L19.2 68.16L18.56 66.88C18.1333 65.9413 17.92 65.344 17.92 65.088C17.92 64.4907 18.2613 64.192 18.944 64.192C19.3707 64.192 19.712 64.4907 19.968 65.088C20.0533 65.344 20.1387 65.472 20.224 65.472C20.3093 65.472 20.3947 65.216 20.48 64.704C22.1013 60.2667 23.936 55.616 25.984 50.752C26.3253 49.8133 26.624 49.0453 26.88 48.448C27.136 47.7653 27.264 47.3813 27.264 47.296C27.264 47.2107 27.136 47.168 26.88 47.168C26.7093 47.168 26.4107 47.2107 25.984 47.296C16.8533 48.576 9.77067 50.1547 4.736 52.032C2.85867 52.7147 1.83467 53.056 1.664 53.056C1.06667 53.056 0.512 52.4587 0 51.264C0 50.24 0.981333 49.472 2.944 48.96C8.064 47.936 15.7013 46.9547 25.856 46.016L27.904 45.888L28.672 44.096C29.3547 42.3893 31.2747 37.952 34.432 30.784C37.5893 23.4453 39.808 18.24 41.088 15.168C42.5387 11.1573 43.904 9.15199 45.184 9.15199C45.5253 9.15199 45.8667 9.27999 46.208 9.536C46.976 9.87733 47.36 10.56 47.36 11.584C47.36 12.096 47.1467 12.7787 46.72 13.632C46.2933 14.4 45.0133 16.7467 42.88 20.672C36.8213 32.2773 32.7253 40.5973 30.592 45.632C30.7627 45.632 31.872 45.5467 33.92 45.376C36.3947 45.2053 40.192 44.9493 45.312 44.608C48.2987 44.4373 50.432 44.3093 51.712 44.224C52.992 44.0533 53.632 43.9253 53.632 43.84C58.6667 32.9173 64.64 20.16 71.552 5.56799C72.32 4.03199 72.8747 2.96533 73.216 2.368C73.6427 1.68533 73.984 1.30133 74.24 1.216C74.5813 1.04533 74.88 0.959999 75.136 0.959999C75.5627 0.959999 75.9467 1.17333 76.288 1.6C76.4587 1.77066 76.544 2.02666 76.544 2.368C76.544 3.47733 75.3067 6.16533 72.832 10.432C66.688 21.5253 61.3547 31.808 56.832 41.28L55.552 44.096L57.472 43.968C61.6533 43.712 65.6213 43.584 69.376 43.584C73.0453 43.584 75.5627 43.712 76.928 43.968C77.184 44.0533 77.312 44.1387 77.312 44.224C77.312 44.3947 76.8 44.5227 75.776 44.608C74.752 44.608 73.0453 44.608 70.656 44.608C66.9867 44.608 63.2747 44.6507 59.52 44.736L55.04 44.992L54.4 46.4C47.3173 62.1013 43.0933 73.8347 41.728 81.6C41.5573 82.624 41.472 83.52 41.472 84.288C41.472 86.336 42.0267 87.4027 43.136 87.488C43.9893 87.6587 44.416 88.0427 44.416 88.64V88.768C44.416 89.28 44.0747 89.536 43.392 89.536C43.136 89.536 42.88 89.4933 42.624 89.408ZM84.514 56.64C84.1727 56.4693 83.9167 56.1707 83.746 55.744C83.5753 55.3173 83.49 54.848 83.49 54.336C83.49 52.032 84.8127 48.6613 87.458 44.224C88.226 42.8587 88.6953 42.0053 88.866 41.664C88.866 41.408 88.6953 41.3227 88.354 41.408C87.586 41.408 85.8793 42.048 83.234 43.328L80.674 44.736L81.186 45.76C81.442 46.272 81.57 46.912 81.57 47.68C81.57 49.472 80.802 51.392 79.266 53.44C77.986 54.8907 76.7487 55.616 75.554 55.616C74.274 55.616 73.506 54.5493 73.25 52.416C73.25 50.624 74.146 48.32 75.938 45.504C76.8767 44.224 77.73 43.584 78.498 43.584C78.754 43.584 79.0527 43.6693 79.394 43.84C79.5647 44.0107 79.778 44.096 80.034 44.096C80.546 44.096 81.9113 43.456 84.13 42.176C86.5193 40.8107 88.226 40.128 89.25 40.128H89.762C91.2127 40.128 91.81 40.8533 91.554 42.304C91.7247 43.2427 90.7433 45.632 88.61 49.472C87.7567 51.1787 87.1167 52.4587 86.69 53.312C86.3487 54.08 86.178 54.5493 86.178 54.72V54.848C86.3487 54.848 86.8607 54.464 87.714 53.696C88.5673 52.8427 89.2927 52.0747 89.89 51.392C91.3407 49.7707 93.1327 48.192 95.266 46.656C96.29 45.8027 97.2287 45.376 98.082 45.376C99.106 45.376 99.5753 45.888 99.49 46.912C99.49 47.5093 99.362 48.5333 99.106 49.984C99.0207 50.496 98.978 50.88 98.978 51.136C98.978 51.904 99.3193 52.288 100.002 52.288C100.429 52.288 100.941 52.2027 101.538 52.032C102.562 51.776 104.183 50.6667 106.402 48.704C107.511 47.7653 108.151 47.296 108.322 47.296C108.407 47.296 108.194 47.5093 107.682 47.936C105.805 49.8133 104.013 51.264 102.306 52.288C101.197 52.8 100.173 53.056 99.234 53.056H98.722C97.8687 52.7147 97.442 51.776 97.442 50.24C97.442 49.5573 97.5273 48.832 97.698 48.064C97.7833 47.552 97.826 47.168 97.826 46.912C97.826 46.4853 97.698 46.3147 97.442 46.4C97.186 46.4 96.8447 46.4853 96.418 46.656C94.7967 47.424 92.7487 49.216 90.274 52.032C89.5913 52.8 88.994 53.4827 88.482 54.08C88.0553 54.592 87.842 54.8907 87.842 54.976C87.2447 55.744 86.4767 56.3413 85.538 56.768H85.282C85.026 56.768 84.77 56.7253 84.514 56.64ZM78.242 52.544C79.4367 51.4347 80.2047 49.984 80.546 48.192V47.68C80.546 46.8267 80.3753 46.2293 80.034 45.888C79.9487 45.888 79.4793 46.4853 78.626 47.68C77.858 48.7893 77.2607 49.728 76.834 50.496C76.578 51.0933 76.3647 51.7333 76.194 52.416C76.1087 52.672 76.066 52.8853 76.066 53.056C76.066 53.312 76.2793 53.3973 76.706 53.312C76.962 53.312 77.474 53.056 78.242 52.544ZM92.191 91.072C90.655 90.304 89.887 89.1093 89.887 87.488C89.887 82.9653 94.5377 76.2667 103.839 67.392C107.679 63.8933 112.458 60.096 118.175 56C120.052 54.72 121.204 53.7813 121.631 53.184C122.143 52.5013 122.612 51.264 123.039 49.472C123.38 47.8507 123.551 46.528 123.551 45.504C123.551 44.1387 123.167 43.4133 122.399 43.328C122.058 43.328 120.991 43.8827 119.199 44.992C118.858 45.3333 118.303 45.8027 117.535 46.4C116.682 47.168 115.231 48.5333 113.183 50.496C110.367 53.568 108.362 55.104 107.167 55.104C106.826 55.104 106.484 55.0187 106.143 54.848C105.546 54.2507 105.247 53.3547 105.247 52.16V51.648C105.93 48.576 107.551 45.76 110.111 43.2C112.586 41.2373 114.762 40.256 116.639 40.256C118.004 40.256 118.9 40.8533 119.327 42.048C119.498 42.7307 119.583 43.2 119.583 43.456V43.584C119.583 43.7547 119.626 43.84 119.711 43.84C119.882 43.84 120.351 43.6267 121.119 43.2C121.802 42.8587 122.399 42.688 122.911 42.688C124.703 42.688 125.727 44.48 125.983 48.064L126.111 50.496L129.055 48.576C130.847 47.4667 131.956 46.8693 132.383 46.784C132.383 46.8693 131.786 47.3387 130.591 48.192C129.482 49.0453 128.074 50.0693 126.367 51.264C126.026 51.4347 125.77 51.776 125.599 52.288C125.087 54.592 124.276 57.152 123.167 59.968C120.266 66.7947 116.383 73.0667 111.519 78.784C106.655 84.416 101.919 88.2133 97.311 90.176C95.6043 90.8587 94.1963 91.2 93.087 91.2C92.7457 91.2 92.447 91.1573 92.191 91.072ZM96.415 88.256C103.156 84.3307 109.812 76.736 116.383 65.472C118.943 60.5227 120.522 56.9387 121.119 54.72C121.034 54.72 120.394 55.1467 119.199 56C118.004 56.768 116.639 57.7493 115.103 58.944C113.567 60.0533 112.202 61.0773 111.007 62.016C103.412 68.16 97.823 73.8347 94.239 79.04C92.1057 82.4533 91.039 85.1413 91.039 87.104C91.039 87.872 91.2097 88.4267 91.551 88.768C91.8923 89.1947 92.4043 89.408 93.087 89.408C93.855 89.408 94.9643 89.024 96.415 88.256ZM110.367 51.776C111.306 50.9227 112.458 49.984 113.823 48.96C115.103 47.7653 116.212 46.7413 117.151 45.888C118.26 45.0347 118.815 44.2667 118.815 43.584C118.815 43.1573 118.687 42.7733 118.431 42.432C118.26 42.0907 118.004 41.92 117.663 41.92H117.279C114.036 43.2 111.263 46.1867 108.959 50.88C108.532 51.7333 108.319 52.3307 108.319 52.672C108.319 52.7573 108.404 52.8 108.575 52.8C108.831 52.8 109.428 52.4587 110.367 51.776ZM126.556 64.064C125.617 63.3813 125.148 62.528 125.148 61.504C125.148 60.6507 125.532 59.6267 126.3 58.432C126.897 57.5787 127.196 56.9387 127.196 56.512V56.128C127.196 55.5307 127.665 54.1227 128.604 51.904C129.543 49.6853 130.14 48.2773 130.396 47.68C132.188 43.072 134.577 37.4827 137.564 30.912C143.367 18.2827 148.529 10.1333 153.052 6.464C154.588 5.184 155.825 4.544 156.764 4.544C157.361 4.544 157.831 4.84266 158.172 5.43999C158.257 5.696 158.3 5.99466 158.3 6.336C158.3 7.78666 157.532 10.176 155.996 13.504C152.924 20.16 147.633 27.4987 140.124 35.52C137.223 38.5067 135.601 40.7253 135.26 42.176C134.577 43.7973 134.151 44.8213 133.98 45.248C133.809 45.76 133.511 46.4427 133.084 47.296L132.444 48.832L134.62 46.656C138.204 42.6453 141.404 40.64 144.22 40.64H145.244C146.012 40.64 146.567 40.8107 146.908 41.152C148.188 41.92 148.828 43.4133 148.828 45.632C148.828 46.4853 148.7 47.5093 148.444 48.704C148.188 49.6427 148.06 50.112 148.06 50.112H148.188C148.529 50.112 149.34 49.856 150.62 49.344C151.9 48.832 152.967 48.3627 153.82 47.936C154.844 47.424 155.441 47.168 155.612 47.168H155.74C155.74 47.2533 155.655 47.3813 155.484 47.552C154.716 48.32 152.924 49.216 150.108 50.24L147.548 51.008L146.652 52.672C146.055 53.7813 144.903 55.232 143.196 57.024C140.465 60.096 137.479 62.272 134.236 63.552C132.871 64.2347 131.377 64.576 129.756 64.576H128.476C127.452 64.576 126.812 64.4053 126.556 64.064ZM129.884 62.144C131.847 61.5467 133.852 60.4373 135.9 58.816C138.801 56.0853 140.807 53.8667 141.916 52.16C141.831 52.16 140.764 52.288 138.716 52.544C133.767 53.3973 130.737 54.6347 129.628 56.256C129.201 56.768 128.817 57.1093 128.476 57.28C128.135 57.28 127.708 57.664 127.196 58.432C126.684 59.0293 126.428 59.7973 126.428 60.736C126.428 61.76 126.641 62.272 127.068 62.272C127.409 62.4427 127.751 62.528 128.092 62.528C128.519 62.528 129.116 62.4 129.884 62.144ZM132.06 53.824C133.596 52.9707 136.071 52.3307 139.484 51.904C141.105 51.7333 142.172 51.4347 142.684 51.008C143.281 50.5813 143.921 49.5573 144.604 47.936C145.372 46.3147 145.756 44.992 145.756 43.968C145.756 43.3707 145.585 42.8587 145.244 42.432C144.817 42.0053 144.22 41.792 143.452 41.792C142.172 41.792 140.593 42.3893 138.716 43.584C134.876 46.4 132.188 49.7707 130.652 53.696C130.567 53.952 130.524 54.1227 130.524 54.208C130.524 54.2933 130.567 54.336 130.652 54.336C130.823 54.336 131.292 54.1653 132.06 53.824ZM141.788 32.832C144.007 30.4427 145.671 28.48 146.78 26.944C151.815 20.544 155.057 15.04 156.508 10.432C156.935 9.06666 157.148 7.99999 157.148 7.23199C157.148 6.72 157.063 6.464 156.892 6.464C156.209 6.464 154.972 7.616 153.18 9.92C151.473 12.1387 149.553 14.9973 147.42 18.496C142.641 26.7733 139.441 32.9173 137.82 36.928C137.905 36.928 138.247 36.5867 138.844 35.904C139.527 35.2213 140.508 34.1973 141.788 32.832ZM162.338 57.792C161.399 57.6213 160.93 56.384 160.93 54.08V53.056C161.015 51.52 161.186 50.3253 161.442 49.472L161.698 48.192C161.613 48.192 160.93 48.8747 159.65 50.24C157.687 52.2027 156.194 53.184 155.17 53.184C154.487 53.184 153.975 52.8 153.634 52.032C153.378 51.52 153.25 50.9227 153.25 50.24C153.25 49.472 153.463 48.4053 153.89 47.04C154.914 43.0293 156.194 41.024 157.73 41.024C158.413 41.024 158.882 41.2373 159.138 41.664C159.479 42.0907 159.65 42.5173 159.65 42.944C159.65 43.6267 159.223 44.5653 158.37 45.76C156.493 48.4907 155.554 50.3253 155.554 51.264C155.554 51.6053 155.725 51.776 156.066 51.776C156.407 51.776 156.877 51.5627 157.474 51.136C158.327 50.4533 159.437 49.472 160.802 48.192C162.167 46.8267 162.85 46.0587 162.85 45.888C162.85 45.632 163.234 44.864 164.002 43.584C164.855 42.1333 165.538 41.3227 166.05 41.152C166.306 41.0667 166.605 41.024 166.946 41.024C167.458 41.024 167.842 41.2373 168.098 41.664C168.269 41.92 168.354 42.2187 168.354 42.56C168.354 43.328 167.714 44.5653 166.434 46.272C163.789 50.4533 162.466 53.5253 162.466 55.488C162.466 56.4267 162.765 56.9813 163.362 57.152H163.618C164.898 57.152 167.074 55.0613 170.146 50.88C170.999 49.7707 171.725 48.8747 172.322 48.192C173.005 47.424 173.389 47.04 173.474 47.04V47.168C173.474 47.3387 173.261 47.68 172.834 48.192C172.237 48.7893 171.725 49.4293 171.298 50.112C169.421 52.7573 167.757 54.848 166.306 56.384C165.197 57.4933 164.215 58.048 163.362 58.048C163.021 58.048 162.679 57.9627 162.338 57.792ZM163.716 68.8C162.948 68.6293 162.564 67.904 162.564 66.624C162.564 63.1253 166.447 59.0293 174.212 54.336C174.98 53.9093 175.62 53.5253 176.132 53.184C176.644 52.8427 176.9 52.6293 176.9 52.544C176.9 52.288 176.004 51.5627 174.212 50.368C171.993 49.088 170.884 47.68 170.884 46.144C170.884 45.2053 171.183 44.2667 171.78 43.328C173.999 40.4267 176.175 38.976 178.308 38.976C178.735 38.976 179.119 39.0187 179.46 39.104C180.655 39.7867 181.252 40.7253 181.252 41.92C181.252 42.688 181.039 43.3707 180.612 43.968C180.271 44.5653 179.759 44.864 179.076 44.864C178.308 44.864 177.924 44.352 177.924 43.328V42.176C177.924 41.7493 177.839 41.5787 177.668 41.664C177.412 41.664 177.071 41.7493 176.644 41.92C175.279 42.688 174.212 43.712 173.444 44.992C173.188 45.4187 173.06 45.8027 173.06 46.144C173.06 47.0827 174.127 48.2347 176.26 49.6C177.199 50.2827 177.839 50.88 178.18 51.392L178.564 51.904L180.356 51.008C181.551 50.24 183.129 49.2587 185.092 48.064C186.031 47.552 186.799 47.1253 187.396 46.784C187.993 46.4427 188.335 46.272 188.42 46.272V46.4C188.42 46.5707 187.823 47.04 186.628 47.808C185.519 48.4907 183.855 49.472 181.636 50.752C179.844 51.6907 178.948 52.3733 178.948 52.8V53.056C179.033 53.4827 179.076 53.9093 179.076 54.336C179.076 56.5547 177.967 59.072 175.748 61.888C173.615 64.6187 170.969 66.7093 167.812 68.16C166.447 68.672 165.337 68.928 164.484 68.928C164.143 68.928 163.887 68.8853 163.716 68.8ZM167.044 67.648C170.543 65.856 173.487 63.168 175.876 59.584C176.985 57.4507 177.54 55.7867 177.54 54.592C177.54 54.2507 177.497 53.952 177.412 53.696C177.412 53.6107 177.327 53.568 177.156 53.568C176.985 53.568 176.601 53.7387 176.004 54.08C170.201 57.7493 166.191 61.12 163.972 64.192C163.375 65.216 163.076 66.0693 163.076 66.752C163.076 67.6907 163.631 68.2027 164.74 68.288C165.337 68.288 166.105 68.0747 167.044 67.648ZM186.396 55.488C185.799 55.1467 185.5 54.3787 185.5 53.184C185.5 52.2453 185.671 51.136 186.012 49.856C186.695 47.7227 187.548 45.76 188.572 43.968C188.913 43.3707 189.34 43.072 189.852 43.072C190.705 43.072 191.132 43.456 191.132 44.224C191.132 44.9067 190.791 45.6747 190.108 46.528C187.975 49.6853 186.908 52.0747 186.908 53.696V54.208C187.079 54.8053 187.42 55.104 187.932 55.104C189.297 55.104 192.369 52.8853 197.148 48.448C197.916 47.68 198.385 47.296 198.556 47.296C198.556 47.3813 198.129 47.8507 197.276 48.704C196.423 49.5573 195.484 50.496 194.46 51.52C193.436 52.4587 192.583 53.184 191.9 53.696C190.108 55.1467 188.657 55.872 187.548 55.872C187.121 55.872 186.737 55.744 186.396 55.488ZM191.004 40.512C190.748 40 190.62 39.616 190.62 39.36C190.62 38.4213 191.303 37.696 192.668 37.184C193.436 37.184 193.948 37.7813 194.204 38.976C194.204 40.1707 193.479 40.8533 192.028 41.024C191.601 41.024 191.26 40.8533 191.004 40.512Z" />
</svg>
